<svg xmlns="http://www.w3.org/2000/svg" xmlns:xlink="http://www.w3.org/1999/xlink" width="250" zoomAndPan="magnify" viewBox="0 0 187.5 37.5" height="50" preserveAspectRatio="xMidYMid meet" version="1.0"><defs><g/><clipPath id="e6dff93e3a"><path d="M 19.695312 5.46875 L 45 5.46875 L 45 30.917969 L 19.695312 30.917969 Z M 19.695312 5.46875 " clip-rule="nonzero"/></clipPath><clipPath id="5db0e6525f"><path d="M 27.207031 11 L 41.429688 11 L 41.429688 23 L 27.207031 23 Z M 27.207031 11 " clip-rule="nonzero"/></clipPath></defs><g clip-path="url(#e6dff93e3a)"><path fill="#274760" d="M 43.210938 13.5 L 36.902344 13.5 L 36.902344 7.191406 C 36.902344 6.960938 36.859375 6.742188 36.773438 6.53125 C 36.683594 6.320312 36.558594 6.136719 36.398438 5.972656 C 36.238281 5.8125 36.050781 5.6875 35.839844 5.601562 C 35.628906 5.511719 35.410156 5.46875 35.183594 5.46875 L 29.445312 5.46875 C 29.21875 5.46875 29 5.511719 28.789062 5.601562 C 28.578125 5.6875 28.390625 5.8125 28.230469 5.972656 C 28.066406 6.136719 27.945312 6.320312 27.855469 6.53125 C 27.769531 6.742188 27.726562 6.960938 27.726562 7.191406 L 27.726562 13.5 L 21.414062 13.5 C 21.1875 13.5 20.96875 13.542969 20.757812 13.632812 C 20.546875 13.71875 20.359375 13.84375 20.199219 14.003906 C 20.035156 14.164062 19.914062 14.351562 19.824219 14.5625 C 19.738281 14.773438 19.695312 14.992188 19.695312 15.222656 L 19.695312 20.957031 C 19.695312 21.183594 19.738281 21.40625 19.824219 21.617188 C 19.914062 21.828125 20.035156 22.011719 20.199219 22.175781 C 20.359375 22.335938 20.546875 22.460938 20.757812 22.546875 C 20.96875 22.632812 21.1875 22.679688 21.414062 22.679688 L 27.726562 22.679688 L 27.726562 28.988281 C 27.726562 29.214844 27.769531 29.4375 27.855469 29.648438 C 27.945312 29.855469 28.066406 30.042969 28.230469 30.203125 C 28.390625 30.367188 28.578125 30.492188 28.789062 30.578125 C 29 30.664062 29.21875 30.707031 29.445312 30.707031 L 35.183594 30.707031 C 35.410156 30.707031 35.628906 30.664062 35.839844 30.578125 C 36.050781 30.492188 36.238281 30.367188 36.398438 30.203125 C 36.558594 30.042969 36.683594 29.855469 36.773438 29.648438 C 36.859375 29.4375 36.902344 29.214844 36.902344 28.988281 L 36.902344 22.679688 L 43.210938 22.679688 C 43.441406 22.679688 43.660156 22.632812 43.871094 22.546875 C 44.082031 22.460938 44.269531 22.335938 44.429688 22.175781 C 44.589844 22.011719 44.714844 21.828125 44.800781 21.617188 C 44.890625 21.40625 44.933594 21.183594 44.933594 20.957031 L 44.933594 15.222656 C 44.933594 14.992188 44.890625 14.773438 44.800781 14.5625 C 44.714844 14.351562 44.589844 14.164062 44.429688 14.003906 C 44.269531 13.84375 44.082031 13.71875 43.871094 13.632812 C 43.660156 13.542969 43.441406 13.5 43.210938 13.5 Z M 43.210938 13.5 " fill-opacity="1" fill-rule="nonzero"/></g><g clip-path="url(#5db0e6525f)"><path fill="#89db85" d="M 38.261719 13.117188 C 31.550781 13.085938 27.949219 16.21875 27.640625 22.707031 C 27.636719 22.785156 27.519531 22.792969 27.507812 22.710938 C 27.207031 20.589844 27.265625 18.660156 27.804688 16.980469 C 29.578125 11.441406 36.351562 10.714844 41.152344 12.46875 C 41.394531 12.554688 41.441406 12.863281 41.242188 13.023438 C 37.496094 16.019531 38.003906 24.199219 28.882812 20.652344 C 30.308594 16.226562 33.230469 13.484375 38.261719 13.117188 " fill-opacity="1" fill-rule="evenodd"/></g><g fill="#274760" fill-opacity="1"><g transform="translate(48.92024, 28.834503)"><g><path d="M 7.421875 -9.90625 L 7.421875 0 L 1.796875 0 L 1.796875 -24.671875 L 7.421875 -24.671875 L 7.421875 -14.828125 L 15.375 -14.828125 L 15.375 -24.671875 L 21 -24.671875 L 21 0 L 15.375 0 L 15.375 -9.90625 Z M 7.421875 -9.90625 "/></g></g></g><g fill="#274760" fill-opacity="1"><g transform="translate(71.708556, 28.834503)"><g><path d="M 17.3125 -6.9375 L 6.1875 -6.9375 C 6.1875 -5.863281 6.535156 -5.066406 7.234375 -4.546875 C 7.929688 -4.023438 8.691406 -3.765625 9.515625 -3.765625 C 10.367188 -3.765625 11.046875 -3.878906 11.546875 -4.109375 C 12.046875 -4.335938 12.613281 -4.789062 13.25 -5.46875 L 17.078125 -3.5625 C 15.484375 -0.882812 12.832031 0.453125 9.125 0.453125 C 6.8125 0.453125 4.828125 -0.335938 3.171875 -1.921875 C 1.515625 -3.515625 0.6875 -5.425781 0.6875 -7.65625 C 0.6875 -9.882812 1.515625 -11.796875 3.171875 -13.390625 C 4.828125 -14.992188 6.8125 -15.796875 9.125 -15.796875 C 11.550781 -15.796875 13.523438 -15.09375 15.046875 -13.6875 C 16.578125 -12.28125 17.34375 -10.269531 17.34375 -7.65625 C 17.34375 -7.300781 17.332031 -7.0625 17.3125 -6.9375 Z M 6.34375 -9.875 L 12.171875 -9.875 C 12.054688 -10.664062 11.742188 -11.273438 11.234375 -11.703125 C 10.722656 -12.128906 10.066406 -12.34375 9.265625 -12.34375 C 8.390625 -12.34375 7.691406 -12.113281 7.171875 -11.65625 C 6.660156 -11.195312 6.382812 -10.601562 6.34375 -9.875 Z M 6.34375 -9.875 "/></g></g></g><g fill="#274760" fill-opacity="1"><g transform="translate(89.741831, 28.834503)"><g><path d="M 2.84375 -1.890625 C 1.40625 -3.460938 0.6875 -5.382812 0.6875 -7.65625 C 0.6875 -9.925781 1.40625 -11.847656 2.84375 -13.421875 C 4.28125 -15.003906 6.101562 -15.796875 8.3125 -15.796875 C 10.34375 -15.796875 12.019531 -15.15625 13.34375 -13.875 L 13.34375 -15.34375 L 18.625 -15.34375 L 18.625 0 L 13.390625 0 L 13.390625 -1.734375 L 13.34375 -1.734375 C 12.019531 -0.273438 10.34375 0.453125 8.3125 0.453125 C 6.101562 0.453125 4.28125 -0.328125 2.84375 -1.890625 Z M 7.34375 -10.25 C 6.65625 -9.570312 6.3125 -8.707031 6.3125 -7.65625 C 6.3125 -6.601562 6.640625 -5.738281 7.296875 -5.0625 C 7.953125 -4.394531 8.820312 -4.0625 9.90625 -4.0625 C 10.9375 -4.0625 11.785156 -4.398438 12.453125 -5.078125 C 13.117188 -5.753906 13.453125 -6.613281 13.453125 -7.65625 C 13.453125 -8.707031 13.109375 -9.570312 12.421875 -10.25 C 11.734375 -10.9375 10.894531 -11.28125 9.90625 -11.28125 C 8.882812 -11.28125 8.03125 -10.9375 7.34375 -10.25 Z M 7.34375 -10.25 "/></g></g></g><g fill="#274760" fill-opacity="1"><g transform="translate(110.167579, 28.834503)"><g><path d="M 1.796875 0 L 1.796875 -25.71875 L 7.09375 -25.71875 L 7.09375 0 Z M 1.796875 0 "/></g></g></g><g fill="#274760" fill-opacity="1"><g transform="translate(119.049642, 28.834503)"><g><path d="M 13.421875 -15.34375 L 19.53125 -15.34375 L 7.484375 7.78125 L 1.375 7.78125 L 6.671875 -2.390625 L -0.59375 -15.34375 L 5.5 -15.34375 L 9.78125 -7.484375 Z M 13.421875 -15.34375 "/></g></g></g><g fill="#274760" fill-opacity="1"><g transform="translate(137.980095, 28.834503)"><g><path d="M 19.5625 0 L 13.15625 0 L 9.78125 -4.34375 L 6.40625 0 L 0 0 L 6.546875 -8.015625 L 0.921875 -15.34375 L 7.125 -15.34375 L 9.78125 -11.78125 L 12.4375 -15.34375 L 18.625 -15.34375 L 13.015625 -8.015625 Z M 19.5625 0 "/></g></g></g></svg>