<svg xmlns="http://www.w3.org/2000/svg" xmlns:xlink="http://www.w3.org/1999/xlink" width="110" zoomAndPan="magnify" viewBox="0 0 82.5 82.499998" height="110" preserveAspectRatio="xMidYMid meet" version="1.0"><defs><clipPath id="add57cea7f"><path d="M 7.703125 7.703125 L 74 7.703125 L 74 74 L 7.703125 74 Z M 7.703125 7.703125 " clip-rule="nonzero"/></clipPath><clipPath id="31bfb45b11"><path d="M 27.375 23 L 64.648438 23 L 64.648438 54 L 27.375 54 Z M 27.375 23 " clip-rule="nonzero"/></clipPath></defs><g clip-path="url(#add57cea7f)"><path fill="#274760" d="M 69.289062 28.730469 L 52.765625 28.730469 L 52.765625 12.207031 C 52.765625 11.914062 52.734375 11.621094 52.679688 11.328125 C 52.621094 11.039062 52.535156 10.757812 52.421875 10.484375 C 52.308594 10.210938 52.171875 9.953125 52.003906 9.707031 C 51.839844 9.460938 51.65625 9.230469 51.445312 9.023438 C 51.234375 8.8125 51.007812 8.625 50.761719 8.460938 C 50.515625 8.296875 50.257812 8.160156 49.984375 8.046875 C 49.710938 7.933594 49.429688 7.847656 49.136719 7.789062 C 48.847656 7.730469 48.554688 7.703125 48.257812 7.703125 L 33.238281 7.703125 C 32.941406 7.703125 32.648438 7.730469 32.359375 7.789062 C 32.070312 7.847656 31.785156 7.933594 31.511719 8.046875 C 31.242188 8.160156 30.980469 8.296875 30.734375 8.460938 C 30.488281 8.625 30.261719 8.8125 30.050781 9.023438 C 29.84375 9.230469 29.65625 9.460938 29.492188 9.707031 C 29.328125 9.953125 29.1875 10.210938 29.074219 10.484375 C 28.960938 10.757812 28.875 11.039062 28.820312 11.328125 C 28.761719 11.621094 28.730469 11.914062 28.730469 12.207031 L 28.730469 28.730469 L 12.207031 28.730469 C 11.914062 28.730469 11.621094 28.761719 11.328125 28.820312 C 11.039062 28.875 10.757812 28.960938 10.484375 29.074219 C 10.210938 29.1875 9.953125 29.328125 9.707031 29.492188 C 9.460938 29.65625 9.230469 29.84375 9.023438 30.050781 C 8.8125 30.261719 8.625 30.488281 8.460938 30.734375 C 8.296875 30.980469 8.160156 31.242188 8.046875 31.511719 C 7.933594 31.785156 7.847656 32.070312 7.789062 32.359375 C 7.730469 32.648438 7.703125 32.941406 7.703125 33.238281 L 7.703125 48.257812 C 7.703125 48.554688 7.730469 48.847656 7.789062 49.136719 C 7.847656 49.429688 7.933594 49.710938 8.046875 49.984375 C 8.160156 50.257812 8.296875 50.515625 8.460938 50.761719 C 8.625 51.007812 8.8125 51.234375 9.023438 51.445312 C 9.230469 51.65625 9.460938 51.839844 9.707031 52.003906 C 9.953125 52.171875 10.210938 52.308594 10.484375 52.421875 C 10.757812 52.535156 11.039062 52.621094 11.328125 52.679688 C 11.621094 52.734375 11.914062 52.765625 12.207031 52.765625 L 28.730469 52.765625 L 28.730469 69.289062 C 28.730469 69.582031 28.761719 69.878906 28.820312 70.167969 C 28.875 70.457031 28.960938 70.738281 29.074219 71.011719 C 29.1875 71.285156 29.328125 71.546875 29.492188 71.792969 C 29.65625 72.039062 29.84375 72.265625 30.050781 72.472656 C 30.261719 72.683594 30.488281 72.871094 30.734375 73.035156 C 30.980469 73.199219 31.242188 73.339844 31.511719 73.453125 C 31.785156 73.566406 32.070312 73.648438 32.359375 73.707031 C 32.648438 73.765625 32.941406 73.792969 33.238281 73.792969 L 48.257812 73.792969 C 48.554688 73.792969 48.847656 73.765625 49.136719 73.707031 C 49.429688 73.648438 49.710938 73.566406 49.984375 73.453125 C 50.257812 73.339844 50.515625 73.199219 50.761719 73.035156 C 51.007812 72.871094 51.234375 72.683594 51.445312 72.472656 C 51.65625 72.265625 51.839844 72.039062 52.003906 71.792969 C 52.171875 71.546875 52.308594 71.285156 52.421875 71.011719 C 52.535156 70.738281 52.621094 70.457031 52.679688 70.167969 C 52.734375 69.878906 52.765625 69.582031 52.765625 69.289062 L 52.765625 52.765625 L 69.289062 52.765625 C 69.582031 52.765625 69.878906 52.734375 70.167969 52.679688 C 70.457031 52.621094 70.738281 52.535156 71.011719 52.421875 C 71.285156 52.308594 71.546875 52.171875 71.792969 52.003906 C 72.039062 51.839844 72.265625 51.65625 72.472656 51.445312 C 72.683594 51.234375 72.871094 51.007812 73.035156 50.761719 C 73.199219 50.515625 73.339844 50.257812 73.453125 49.984375 C 73.566406 49.710938 73.648438 49.429688 73.707031 49.136719 C 73.765625 48.847656 73.792969 48.554688 73.792969 48.257812 L 73.792969 33.238281 C 73.792969 32.941406 73.765625 32.648438 73.707031 32.359375 C 73.648438 32.070312 73.566406 31.785156 73.453125 31.511719 C 73.339844 31.242188 73.199219 30.980469 73.035156 30.734375 C 72.871094 30.488281 72.683594 30.261719 72.472656 30.050781 C 72.265625 29.84375 72.039062 29.65625 71.792969 29.492188 C 71.546875 29.328125 71.285156 29.1875 71.011719 29.074219 C 70.738281 28.960938 70.457031 28.875 70.167969 28.820312 C 69.878906 28.761719 69.582031 28.730469 69.289062 28.730469 Z M 69.289062 28.730469 " fill-opacity="1" fill-rule="nonzero"/></g><g clip-path="url(#31bfb45b11)"><path fill="#89db85" d="M 56.335938 27.730469 C 38.753906 27.648438 29.320312 35.859375 28.511719 52.847656 C 28.5 53.0625 28.1875 53.074219 28.160156 52.859375 C 27.375 47.308594 27.527344 42.25 28.933594 37.851562 C 33.585938 23.339844 51.324219 21.433594 63.90625 26.027344 C 64.535156 26.257812 64.660156 27.066406 64.140625 27.484375 C 54.324219 35.332031 55.660156 56.757812 31.765625 47.472656 C 35.496094 35.875 43.148438 28.6875 56.335938 27.730469 " fill-opacity="1" fill-rule="evenodd"/></g></svg>